<svg width="20" height="21" viewBox="0 0 20 21" fill="none" xmlns="http://www.w3.org/2000/svg">
<g clip-path="url(#clip0_1_2705)">
<path d="M15.2792 16.2771H13.0583V12.7963C13.0583 11.9663 13.0417 10.898 11.9 10.898C10.7425 10.898 10.5658 11.8013 10.5658 12.7355V16.2771H8.34417V9.11963H10.4775V10.0946H10.5067C10.805 9.53296 11.53 8.9388 12.6133 8.9388C14.8633 8.9388 15.28 10.4205 15.28 12.348V16.2771H15.2792ZM5.83583 8.14046C5.6663 8.14068 5.49838 8.10744 5.34172 8.04263C5.18506 7.97783 5.04272 7.88274 4.92288 7.76283C4.80304 7.64291 4.70804 7.50051 4.64334 7.34381C4.57864 7.1871 4.5455 7.01917 4.54583 6.84963C4.546 6.59449 4.62182 6.34513 4.7637 6.13308C4.90558 5.92104 5.10716 5.75582 5.34294 5.65834C5.57872 5.56085 5.83811 5.53548 6.08832 5.58541C6.33852 5.63535 6.5683 5.75836 6.74859 5.93888C6.92888 6.11941 7.05159 6.34935 7.10121 6.59961C7.15082 6.84988 7.12511 7.10924 7.02732 7.34489C6.92953 7.58055 6.76406 7.78191 6.55183 7.92352C6.33959 8.06513 6.09014 8.14063 5.835 8.14046H5.83583ZM6.94917 16.2771H4.72167V9.11963H6.95V16.2771H6.94917ZM16.3917 3.49463H3.6075C2.99417 3.49463 2.5 3.97796 2.5 4.57546V17.4138C2.5 18.0113 2.995 18.4946 3.60667 18.4946H16.3883C17 18.4946 17.5 18.0113 17.5 17.4138V4.57546C17.5 3.97796 17 3.49463 16.3883 3.49463H16.3908H16.3917Z" fill="white"/>
</g>
<defs>
<clipPath id="clip0_1_2705">
<rect width="20" height="20" fill="white" transform="translate(0 0.994629)"/>
</clipPath>
</defs>
</svg>
