<svg width="21" height="21" viewBox="0 0 21 21" fill="none" xmlns="http://www.w3.org/2000/svg">
<g clip-path="url(#clip0_1_2702)">
<path d="M18.9683 5.7079C18.3321 5.98931 17.6574 6.17413 16.9666 6.25623C17.6947 5.82076 18.2397 5.13541 18.4999 4.3279C17.8166 4.73457 17.0674 5.01957 16.2866 5.17373C15.7621 4.61255 15.0669 4.24037 14.3091 4.11506C13.5512 3.98974 12.7732 4.11831 12.096 4.48078C11.4187 4.84325 10.8802 5.4193 10.5642 6.11939C10.2481 6.81949 10.1722 7.60438 10.3483 8.35207C8.96251 8.28261 7.60687 7.9225 6.36933 7.29512C5.13179 6.66774 4.04003 5.78711 3.16492 4.7104C2.85516 5.24244 2.69238 5.84726 2.69326 6.4629C2.69326 7.67123 3.30826 8.73873 4.24326 9.36373C3.68993 9.34631 3.14878 9.19689 2.66492 8.9279V8.97123C2.66509 9.77598 2.94356 10.5559 3.45313 11.1788C3.96269 11.8017 4.67199 12.2291 5.46076 12.3887C4.9471 12.5279 4.40851 12.5484 3.88576 12.4487C4.10814 13.1414 4.54159 13.7472 5.12542 14.1813C5.70924 14.6154 6.4142 14.8561 7.14159 14.8696C6.41866 15.4373 5.5909 15.8571 4.70566 16.1047C3.82041 16.3524 2.89503 16.4231 1.98242 16.3129C3.5755 17.3374 5.43 17.8813 7.32409 17.8796C13.7349 17.8796 17.2408 12.5687 17.2408 7.9629C17.2408 7.8129 17.2366 7.66123 17.2299 7.5129C17.9123 7.01971 18.5013 6.40875 18.9691 5.70873L18.9683 5.7079Z" fill="white"/>
</g>
<defs>
<clipPath id="clip0_1_2702">
<rect width="20" height="20" fill="white" transform="translate(0.5 0.994629)"/>
</clipPath>
</defs>
</svg>
